<svg width="250" height="48" viewBox="0 0 250 48" fill="none" xmlns="http://www.w3.org/2000/svg">
<g clip-path="url(#clip0_223_3608)">
<path d="M41.317 31.291C41.317 32.2858 40.0204 31.521 40.0204 32.5397C40.0204 32.7937 40.1817 33.188 40.2504 33.421L43.5367 43.3544L46.569 34.0245C46.7064 33.5854 46.9842 32.7967 46.9842 32.3336C46.9842 31.4762 45.8042 32.1962 45.8042 31.291V30.8727H49.5774V31.291C49.5774 32.3336 48.8126 30.8727 47.9343 33.6063L43.465 47.4055H42.494L38.9509 36.6625L35.3838 47.4055H34.4338L29.7584 33.1193C29.0862 31.037 28.414 32.2619 28.414 31.291V30.8727H33.2746V31.291C33.2746 32.2171 32.0229 31.3597 32.0229 32.471C32.0229 32.6562 32.1155 32.9341 32.1842 33.1193L35.4944 43.1214L38.3205 34.625L37.7887 32.9819C37.1644 31.0848 36.3996 32.3814 36.3996 31.291V30.8727H41.308V31.291H41.317Z" fill="#3D0F58"/>
<path d="M59.5825 41.5261C59.5825 44.7914 57.1984 47.4981 53.8405 47.4981C50.4826 47.4981 47.9581 45.0663 47.9581 41.7113C47.9581 38.3564 50.3421 35.7364 53.7001 35.7364C57.058 35.7364 59.5825 38.1682 59.5825 41.5261ZM50.5304 41.5022C50.5304 43.6801 51.086 46.6437 53.8166 46.6437C56.5472 46.6437 57.0102 43.7727 57.0102 41.7352C57.0102 39.5574 56.4994 36.5938 53.724 36.5938C51.1547 36.5938 50.5304 39.4647 50.5304 41.5022Z" fill="#3D0F58"/>
<path d="M60.7147 36.0829L64.001 35.9903V37.2869C64.9271 36.3846 66.0146 35.7364 67.3798 35.7364C68.7451 35.7364 69.9043 36.1755 70.5526 37.3795C71.5026 36.4295 72.6587 35.7364 74.0479 35.7364C77.4059 35.7364 77.6598 37.9351 77.6598 39.0226V45.1798C77.6598 46.8229 78.8876 45.6907 78.8876 46.7303V47.1456H74.2331V46.7303C74.2331 45.6877 75.4371 46.799 75.4371 45.1798V39.4618C75.4371 39.1391 75.7388 36.8447 73.3757 36.8447C72.5422 36.8447 71.3622 37.5856 70.8991 38.3026V45.1798C70.8991 46.8229 72.127 45.6907 72.127 46.7303V47.1456H67.4725V46.7303C67.4725 45.6877 68.6764 46.799 68.6764 45.1798V39.4618C68.6764 39.1391 68.9303 36.8447 66.7316 36.8447C65.8054 36.8447 64.6702 37.5856 64.1384 38.3026V45.1798C64.1384 46.8707 65.435 45.6668 65.435 46.7303V47.1456H60.7118V46.7303C60.7118 45.6877 61.9157 46.799 61.9157 45.1798V38.0487C61.9157 36.4743 60.7118 37.4691 60.7118 36.543V36.0799L60.7147 36.0829Z" fill="#3D0F58"/>
<path d="M82.3412 41.2483C82.2037 43.7727 83.5451 46.3897 86.3683 46.3897C87.8262 46.3897 88.8688 45.5562 89.771 44.4688L90.5568 45.0722C89.3767 46.6705 87.9188 47.5041 85.9023 47.5041C82.4517 47.5041 79.9512 44.9587 79.9512 41.5082C79.9512 38.2428 82.1739 35.7423 85.5079 35.7423C88.8419 35.7423 90.4403 38.2428 90.3476 41.2512H82.3382L82.3412 41.2483ZM87.8979 40.1369C88.0144 38.446 87.3422 36.7103 85.3735 36.7103C83.4047 36.7103 82.5503 38.4012 82.4099 40.1369H87.8979Z" fill="#3D0F58"/>
<path d="M91.5755 36.0829L94.793 35.9903V37.1494C95.8596 36.1785 96.947 35.7364 98.381 35.7364C100.905 35.7364 102.062 36.9164 102.062 38.8613V45.1828C102.062 46.8259 103.289 45.6937 103.289 46.7333V47.1486H98.5901V46.7333C98.5901 45.6907 99.8419 46.8259 99.8419 45.1828V39.5096C99.8419 38.0517 99.6567 36.8477 97.5266 36.8477C96.6483 36.8477 95.4204 37.4273 94.9334 38.213V45.1828C94.9334 46.8259 96.1852 45.6937 96.1852 46.7333V47.1486H91.5785V46.7333C91.5785 45.7385 92.7137 46.7572 92.7137 45.1828V38.0517C92.7137 36.4773 91.5785 37.4721 91.5785 36.546V36.0829H91.5755Z" fill="#3D0F58"/>
<path d="M105.052 35.9903C105.724 35.2046 106.325 34.2307 106.373 33.188C106.187 33.2119 105.978 33.2567 105.793 33.2567C105.052 33.2567 104.404 32.6323 104.404 31.8675C104.404 31.0579 105.052 30.4545 105.862 30.4545C107.042 30.4545 107.529 31.6136 107.529 32.6323C107.529 34.138 106.627 35.4794 105.584 36.5221L105.052 35.9903Z" fill="#3D0F58"/>
<path d="M108.153 45.2754C108.153 44.5345 108.801 44.0476 109.518 44.0476C110.098 44.0476 110.884 44.418 110.884 45.0902C110.884 45.2754 110.767 45.5055 110.767 45.6907C110.767 46.4794 111.834 46.5242 112.389 46.5242C113.549 46.5242 115.006 45.9685 115.006 44.648C115.006 41.7322 108.685 43.0288 108.685 39.1152C108.685 36.8238 111.302 35.7364 113.268 35.7364C114.427 35.7364 116.67 36.1307 116.67 37.6812C116.67 38.4221 116.022 38.8165 115.35 38.8165C114.77 38.8165 114.053 38.4938 114.053 37.7977C114.053 37.6364 114.098 37.4751 114.098 37.3108C114.098 36.779 113.289 36.7103 112.894 36.7103C111.992 36.7103 110.788 37.2899 110.788 38.3295C110.788 41.0601 117.226 39.8591 117.226 43.8414C117.226 46.318 114.633 47.4981 112.455 47.4981C111.203 47.4981 108.147 47.0111 108.147 45.2754H108.153Z" fill="#3D0F58"/>
<path d="M134.987 38.1443V32.958C134.987 31.037 133.714 32.3097 133.714 31.291V30.8727H138.646V31.291C138.646 32.3097 137.374 31.037 137.374 32.958V45.0663C137.374 46.9872 138.646 45.7146 138.646 46.7333V47.1486H133.714V46.7333C133.714 45.7146 134.987 46.9872 134.987 45.0663V39.3243H127.67V45.0663C127.67 46.9872 128.943 45.7146 128.943 46.7333V47.1486H124.011V46.7333C124.011 45.7146 125.283 46.9872 125.283 45.0663V32.958C125.283 31.037 124.011 32.3097 124.011 31.291V30.8727H128.943V31.291C128.943 32.3097 127.67 31.037 127.67 32.958V38.1443H134.987Z" fill="#3D0F58"/>
<path d="M142.025 41.2483C141.888 43.7727 143.229 46.3897 146.055 46.3897C147.513 46.3897 148.556 45.5562 149.458 44.4688L150.247 45.0722C149.067 46.6705 147.609 47.5041 145.592 47.5041C142.142 47.5041 139.641 44.9587 139.641 41.5082C139.641 38.2428 141.864 35.7423 145.198 35.7423C148.532 35.7423 150.13 38.2428 150.038 41.2512H142.028L142.025 41.2483ZM147.582 40.1369C147.698 38.446 147.026 36.7103 145.058 36.7103C143.089 36.7103 142.231 38.4012 142.094 40.1369H147.582Z" fill="#3D0F58"/>
<path d="M156.144 36.5938C155.427 36.5938 155.242 36.9642 155.173 37.5886C155.104 38.3295 154.573 38.8374 153.832 38.8374C153.184 38.8374 152.628 38.3982 152.628 37.7021C152.628 36.2681 155.06 35.7334 156.123 35.7334C160.706 35.7334 160.73 39.4827 160.73 40.131V43.7428C160.73 44.4598 160.661 46.2434 161.749 46.2434C162.026 46.2434 162.188 46.1059 162.373 45.9416L162.466 46.079C162.534 46.1717 162.651 46.2882 162.651 46.4256C162.651 46.8887 161.68 47.4891 160.867 47.4891C159.801 47.4891 159.084 46.8409 158.737 45.8699C157.742 46.9365 156.885 47.4891 155.403 47.4891C153.482 47.4891 151.537 46.3539 151.537 44.2477C151.537 41.1228 156.12 40.3819 158.436 40.1489C158.436 38.6671 158.134 36.5848 156.144 36.5848V36.5938ZM158.507 41.0152C156.631 41.1766 153.993 41.9653 153.993 44.3015C153.993 45.4815 154.665 46.3838 155.89 46.3838C156.724 46.3838 158.507 45.8281 158.507 43.235V41.0123V41.0152Z" fill="#3D0F58"/>
<path d="M167.344 45.1828C167.344 46.805 168.524 45.7146 168.524 46.7333V47.1486H163.894V46.7333C163.894 45.6907 165.122 46.8259 165.122 45.1828V32.8415C165.122 31.1983 163.894 32.3306 163.894 31.291V30.8727L167.344 30.7801V45.1798V45.1828Z" fill="#3D0F58"/>
<path d="M169.54 36.8029C169.54 35.808 171.159 36.7103 171.159 35.0432V33.5136C171.159 32.9132 171.392 32.8415 171.9 32.8205L173.382 32.7279V36.0859H176.113V37.3376H173.382V44.2148C173.382 45.3023 173.612 46.2523 174.912 46.2523C175.443 46.2523 175.697 46.1836 176.16 45.9297L176.322 45.837L176.761 46.554C176.068 47.1336 174.864 47.5041 173.935 47.5041C171.643 47.5041 171.156 45.9297 171.156 44.7735V37.3406H169.537V36.8088L169.54 36.8029Z" fill="#3D0F58"/>
<path d="M181.391 45.1828C181.391 46.805 182.571 45.7146 182.571 46.7333V47.1486H177.941V46.7333C177.941 45.6907 179.169 46.8259 179.169 45.1828V32.8415C179.169 31.1983 177.941 32.3306 177.941 31.291V30.8727L181.391 30.7801V36.9403C182.527 36.1994 183.59 35.7363 184.955 35.7363C188.451 35.7363 188.8 38.1682 188.8 38.8613V45.1828C188.8 46.805 190.004 45.6936 190.004 46.7333V47.1486H185.422V46.7333C185.422 45.7146 186.581 46.7781 186.581 45.1828V39.4169C186.581 38.676 186.605 36.8477 184.265 36.8477C183.294 36.8477 181.998 37.3795 181.394 38.1443V45.1828H181.391Z" fill="#3D0F58"/>
<path d="M208.207 31.291C208.207 32.2858 206.911 31.521 206.911 32.5397C206.911 32.7937 207.072 33.188 207.144 33.421L210.43 43.3544L213.462 34.0245C213.6 33.5854 213.877 32.7967 213.877 32.3336C213.877 31.4762 212.697 32.1962 212.697 31.291V30.8727H216.471V31.291C216.471 32.3336 215.706 30.8727 214.827 33.6063L210.358 47.4055H209.387L205.844 36.6625L202.277 47.4055H201.327L196.651 33.1193C195.979 31.037 195.307 32.2619 195.307 31.291V30.8727H200.168V31.291C200.168 32.2171 198.919 31.3597 198.919 32.471C198.919 32.6562 199.012 32.9341 199.08 33.1193L202.39 43.1214L205.217 34.625L204.685 32.9819C204.06 31.0848 203.296 32.3814 203.296 31.291V30.8727H208.204V31.291H208.207Z" fill="#3D0F58"/>
<path d="M217.256 41.2483C217.119 43.7727 218.46 46.3897 221.286 46.3897C222.744 46.3897 223.787 45.5562 224.689 44.4688L225.478 45.0722C224.298 46.6705 222.84 47.5041 220.823 47.5041C217.373 47.5041 214.872 44.9587 214.872 41.5082C214.872 38.2428 217.095 35.7423 220.429 35.7423C223.763 35.7423 225.361 38.2428 225.269 41.2512H217.259L217.256 41.2483ZM222.813 40.1369C222.929 38.446 222.257 36.7103 220.289 36.7103C218.32 36.7103 217.462 38.4012 217.325 40.1369H222.813Z" fill="#3D0F58"/>
<path d="M229.385 41.2483C229.248 43.7727 230.589 46.3897 233.416 46.3897C234.873 46.3897 235.916 45.5562 236.818 44.4688L237.607 45.0722C236.427 46.6705 234.969 47.5041 232.952 47.5041C229.502 47.5041 227.001 44.9587 227.001 41.5082C227.001 38.2428 229.224 35.7423 232.558 35.7423C235.892 35.7423 237.49 38.2428 237.398 41.2512H229.388L229.385 41.2483ZM234.942 40.1369C235.059 38.446 234.386 36.7103 232.418 36.7103C230.449 36.7103 229.592 38.4012 229.454 40.1369H234.942Z" fill="#3D0F58"/>
<path d="M244.042 39.1182C244.344 38.8642 245.431 37.8903 245.431 37.499C245.431 36.7342 244.296 37.3376 244.296 36.5041V36.0859H249.136V36.5041C249.136 37.3824 248.535 36.4354 246.148 38.6342L244.18 40.4386L247.791 45.138C248.903 46.5959 249.527 45.9715 249.527 46.7363V47.1515H244.457V46.7363C244.457 45.9028 245.428 46.4106 245.428 45.7175C245.428 45.4636 245.082 45.0932 244.941 44.9318L242.626 41.9204L241.724 42.754V45.1858C241.724 46.7602 242.859 45.7414 242.859 46.7363V47.1515H238.366V46.7363C238.366 45.7414 239.501 46.7602 239.501 45.1858V32.8444C239.501 31.27 238.366 32.2888 238.366 31.2939V30.8757L241.724 30.7831V41.317L244.039 39.1182H244.042Z" fill="#3D0F58"/>
<path d="M82.153 7.17892H84.6147V14.2623H92.7407V7.17892H95.2083V23.4787H92.7407V16.3714H84.6147V23.4787H82.153V7.17892Z" fill="#3D0F58"/>
<path d="M97.5714 20.0251C97.5714 17.2468 99.9435 16.6433 102.259 16.3714C104.455 16.1175 105.348 16.1324 105.348 15.2661V15.2093C105.348 13.8231 104.559 13.0195 103.024 13.0195C101.488 13.0195 100.532 13.856 100.183 14.7223L97.9449 14.2145C98.7395 11.9858 100.777 11.0955 102.991 11.0955C104.933 11.0955 107.735 11.8036 107.735 15.3617V23.4787H105.411V21.8057H105.315C104.861 22.7198 103.723 23.7475 101.7 23.7475C99.3759 23.7475 97.5685 22.4271 97.5685 20.0221M105.354 19.0661V17.4917C105.01 17.8353 103.182 18.0414 102.408 18.143C101.031 18.3252 99.9017 18.7793 99.9017 20.052C99.9017 21.2291 100.873 21.8355 102.217 21.8355C104.198 21.8355 105.354 20.5151 105.354 19.0661Z" fill="#3D0F58"/>
<path d="M110.149 7.94969C110.149 7.16996 110.824 6.52466 111.651 6.52466C112.479 6.52466 113.157 7.16996 113.157 7.94969C113.157 8.72943 112.473 9.36576 111.651 9.36576C110.83 9.36576 110.149 8.72943 110.149 7.94969ZM110.451 11.2539H112.832V23.4787H110.451V11.2539Z" fill="#3D0F58"/>
<path d="M117.961 7.17892H115.58V23.4787H117.961V7.17892Z" fill="#3D0F58"/>
<path d="M120.16 17.4469C120.16 13.6887 122.403 11.0955 125.812 11.0955C128.582 11.0955 131.226 12.8223 131.226 17.2408V18.0833H122.535C122.598 20.4404 123.969 21.7609 126.006 21.7609C127.36 21.7609 128.393 21.1723 128.824 20.0192L131.076 20.4255C130.535 22.4151 128.647 23.7296 125.982 23.7296C122.377 23.7296 120.166 21.247 120.166 17.4499M128.898 16.3027C128.889 14.4325 127.679 13.0643 125.833 13.0643C123.987 13.0643 122.642 14.57 122.547 16.3027H128.898Z" fill="#3D0F58"/>
<path d="M140.424 14.6208C140.146 13.8022 139.462 12.9806 137.98 12.9806C136.627 12.9806 135.608 13.6498 135.617 14.5879C135.608 15.4154 136.191 15.8695 137.535 16.1892L139.477 16.6343C141.721 17.1512 142.82 18.2177 142.82 19.9445C142.82 22.1582 140.774 23.7236 137.822 23.7236C135.076 23.7236 133.278 22.5047 132.881 20.3418L135.181 19.9923C135.468 21.1932 136.382 21.8057 137.807 21.8057C139.366 21.8057 140.376 21.0648 140.376 20.1177C140.376 19.3529 139.826 18.8271 138.649 18.5642L136.579 18.1101C134.288 17.6023 133.236 16.4461 133.236 14.7104C133.236 12.5444 135.193 11.0895 137.956 11.0895C140.72 11.0895 142.088 12.3323 142.581 14.2324L140.424 14.6148V14.6208Z" fill="#3D0F58"/>
<path d="M37.4542 7.17892V18.7345C37.4452 21.8714 35.4884 23.6997 32.495 23.6997C29.7345 23.6997 27.6642 22.1552 27.6642 19.4007H30.108C30.1169 20.7541 31.1177 21.6145 32.5607 21.6145C34.1202 21.6145 34.9955 20.6107 35.0044 18.7345V7.17892H37.4572H37.4542Z" fill="#3D0F58"/>
<path d="M39.8412 17.4469C39.8412 13.6887 42.0848 11.0955 45.4935 11.0955C48.2629 11.0955 50.9068 12.8223 50.9068 17.2408V18.0833H42.2162C42.279 20.4404 43.6502 21.7609 45.6877 21.7609C47.041 21.7609 48.0747 21.1723 48.5049 20.0192L50.7575 20.4255C50.2167 22.4151 48.3286 23.7296 45.6638 23.7296C42.0579 23.7296 39.8472 21.247 39.8472 17.4499M48.5796 16.3027C48.5706 14.4325 47.3607 13.0643 45.5144 13.0643C43.6682 13.0643 42.3238 14.57 42.2282 16.3027H48.5796Z" fill="#3D0F58"/>
<path d="M52.529 20.0251C52.529 17.2468 54.9011 16.6433 57.2164 16.3714C59.4122 16.1175 60.3055 16.1324 60.3055 15.2661V15.2093C60.3055 13.8231 59.5168 13.0195 57.9812 13.0195C56.4456 13.0195 55.4897 13.856 55.1401 14.7223L52.9025 14.2145C53.6972 11.9858 55.7346 11.0955 57.9484 11.0955C59.8902 11.0955 62.6925 11.8036 62.6925 15.3617V23.4787H60.3682V21.8057H60.2726C59.8185 22.7198 58.6803 23.7475 56.6578 23.7475C54.3335 23.7475 52.5261 22.4271 52.5261 20.0221M60.3115 19.0661V17.4917C59.9679 17.8353 58.1396 18.0414 57.3658 18.143C55.9886 18.3252 54.8593 18.7793 54.8593 20.052C54.8593 21.2291 55.8302 21.8355 57.1746 21.8355C59.1553 21.8355 60.3115 20.5151 60.3115 19.0661Z" fill="#3D0F58"/>
<path d="M67.7891 23.4787H65.4081V11.2539H67.6935V13.2435H67.8459C68.4105 11.947 69.6115 11.0955 71.4518 11.0955C73.9523 11.0955 75.6134 12.6789 75.6134 15.7052V23.4817H73.2323V15.992C73.2323 14.2174 72.2524 13.1599 70.6392 13.1599C69.026 13.1599 67.7891 14.2742 67.7891 16.225V23.4846V23.4787Z" fill="#3D0F58"/>
<path d="M16.8644 10.7072C16.8644 12.5295 15.3886 14.0053 13.5662 14.0053C11.7438 14.0053 10.268 12.5295 10.268 10.7072C10.268 8.88478 11.7438 7.40896 13.5662 7.40896C15.3886 7.40896 16.8644 8.88478 16.8644 10.7072ZM27.2668 7.25959C21.8475 10.1485 18.9377 15.8755 19.2335 21.7071C19.2424 21.8057 19.1976 21.8953 19.114 21.9551C18.9855 22.0477 18.8063 22.0208 18.7136 21.8893C18.5493 21.6653 18.379 21.4352 18.1998 21.2052C17.7039 20.5718 17.202 19.9564 16.6911 19.344C15.8725 18.3701 15.6813 17.0167 16.2101 15.8665C17.7845 12.4369 20.3717 9.51515 23.7685 7.82423C24.829 7.31337 25.9374 6.90707 27.0786 6.71288C27.2399 6.683 27.3923 6.79354 27.4162 6.94889C27.4401 7.08333 27.3714 7.20582 27.2609 7.25959M20.3179 28.665C19.6039 26.2421 18.3223 24.0941 16.8913 22.2269C11.3017 15.0659 4.29602 9.71232 3.49538 0.259902C3.48044 0.134427 3.38783 0.0268773 3.25638 0.00596487C3.09804 -0.02391 2.94568 0.0836396 2.91879 0.241977C2.51548 2.48857 2.54834 4.85765 3.00842 7.17295C4.46332 14.3638 9.63766 19.8309 13.387 25.8089C13.3332 25.9971 13.2824 26.1883 13.2256 26.3736C11.693 32.3366 6.74875 37.1435 0.262912 37.9232C0.137438 37.9351 0.0298883 38.0248 0.00300085 38.1562C-0.0298615 38.3145 0.0717131 38.4669 0.23005 38.4998C1.3653 38.7298 2.54834 38.7507 3.72541 38.6581C8.7683 38.1921 13.2525 35.1418 16.0876 30.9683C18.4119 36.3906 17.6322 42.9063 13.3541 47.5041C13.2645 47.5937 13.2406 47.7341 13.3063 47.8506C13.384 47.991 13.5602 48.0448 13.7036 47.9671C14.7194 47.4085 15.6365 46.6646 16.476 45.8311C20.8198 41.4156 22.0507 34.5802 20.3209 28.6679" fill="#3D0F58"/>
</g>
<defs>
<clipPath id="clip0_223_3608">
<rect width="249.53" height="48" fill="white"/>
</clipPath>
</defs>
</svg>
