<svg width="56" height="73" viewBox="0 0 56 73" fill="none" xmlns="http://www.w3.org/2000/svg">
<path fill-rule="evenodd" clip-rule="evenodd" d="M1.13068 72.9999V57.2613L26.0101 35.4793C27.7443 33.9097 29.1965 32.496 30.3773 31.2358C31.4708 30.0483 32.2415 28.9298 32.7477 27.8873C33.2028 26.9301 33.4425 25.8748 33.4425 24.6803C33.4425 23.3103 33.1479 22.3366 32.7064 21.6208L32.7006 21.6114L32.6949 21.6019C32.2033 20.7914 31.5395 20.1726 30.6419 19.7169C29.7377 19.2578 28.6279 18.9872 27.2379 18.9872C25.8463 18.9872 24.7696 19.2707 23.9153 19.7379L23.8994 19.7466L23.8833 19.7551C23.051 20.1973 22.4051 20.8253 21.913 21.7076C21.4606 22.5549 21.1612 23.7179 21.1612 25.3195V28.3195H0.171875V25.3195C0.171875 20.4049 1.28195 15.9922 3.62463 12.204C5.94456 8.45263 9.20203 5.58345 13.307 3.60272C17.428 1.60317 22.119 0.650513 27.3018 0.650513C32.5963 0.650513 37.3509 1.53657 41.4848 3.41122C45.5925 5.27403 48.8849 7.93626 51.2344 11.4333C53.624 14.9365 54.7834 18.9746 54.7834 23.4339C54.7834 26.3397 54.1977 29.1956 53.0583 31.9836C51.8858 34.8523 49.8591 37.8408 47.1387 40.941C44.4386 44.042 40.6713 47.6808 35.8877 51.8439L33.2818 54.2478H55.5824V72.9999H1.13068ZM26.0554 57.2478V56.8323L33.8857 49.6093C38.6371 45.4758 42.3018 41.9282 44.88 38.9666C47.4794 36.0049 49.2798 33.299 50.2812 30.8487C51.2827 28.3984 51.7834 25.9268 51.7834 23.4339C51.7834 19.5134 50.7713 16.0724 48.7472 13.1107C46.7443 10.1278 43.9105 7.80534 40.2457 6.14341C36.581 4.48148 32.2663 3.65051 27.3018 3.65051C22.4865 3.65051 18.2571 4.53474 14.6136 6.30321C10.9915 8.05037 8.17898 10.5433 6.17614 13.7819C4.63774 16.2695 3.69017 19.1154 3.33343 22.3195C3.22572 23.2869 3.17188 24.2869 3.17188 25.3195H18.1612C18.1612 23.338 18.5341 21.6548 19.2798 20.2698C20.0469 18.8849 21.1122 17.8302 22.4759 17.1058C23.8395 16.36 25.4268 15.9872 27.2379 15.9872C29.0277 15.9872 30.6151 16.3387 32 17.0418C33.3849 17.745 34.4716 18.7464 35.2599 20.0461C36.0483 21.3245 36.4425 22.8693 36.4425 24.6803C36.4425 26.2997 36.1122 27.8018 35.4517 29.1867C34.7912 30.5504 33.8324 31.914 32.5753 33.2776C31.3182 34.62 29.7947 36.1008 28.005 37.7201L4.13068 58.6221V69.9999H52.5824V57.2478H26.0554Z" fill="white"/>
</svg>
