<svg width="59" height="74" viewBox="0 0 59 74" fill="none" xmlns="http://www.w3.org/2000/svg">
<path fill-rule="evenodd" clip-rule="evenodd" d="M15.2224 71.0779L15.2133 71.0738C10.9636 69.1614 7.50559 66.4765 4.94736 62.9835C2.34172 59.4258 1.02906 55.3264 0.980049 50.7923L0.947266 47.7599H22.7647L22.8931 50.6257C22.9299 51.4477 23.1772 52.1174 23.6397 52.7229C24.1309 53.3449 24.8497 53.906 25.9164 54.3543C26.9598 54.7928 28.2268 55.0468 29.7718 55.0468C31.2896 55.0468 32.4945 54.7811 33.4573 54.3373C34.4777 53.8555 35.1669 53.2585 35.6381 52.5805C36.0753 51.9319 36.3095 51.182 36.2962 50.2263L36.2956 50.1846L36.2962 50.1429C36.3086 49.2516 36.0703 48.54 35.5856 47.8937C35.076 47.2143 34.2895 46.5903 33.0619 46.0961L33.0492 46.091C31.8717 45.6106 30.3565 45.3224 28.4294 45.3224H19.0694V28.0724H28.4294C30.0412 28.0724 31.3245 27.8069 32.3469 27.3624L32.3541 27.3592L32.3613 27.3561C33.4201 26.9024 34.1178 26.3284 34.5869 25.6833C35.0248 25.0614 35.2543 24.3518 35.2415 23.4442L35.2409 23.4013L35.2416 23.3585C35.2552 22.4173 35.0371 21.7293 34.6756 21.1765L34.6574 21.1487L34.6399 21.1204C34.2571 20.5057 33.7122 20.0034 32.9087 19.6151L32.8998 19.6107L32.8909 19.6064C32.1155 19.2252 31.1237 18.9872 29.8357 18.9872C28.4513 18.9872 27.2786 19.2299 26.2726 19.664C25.3043 20.0909 24.6231 20.6482 24.1341 21.3128C23.6887 21.918 23.4326 22.6289 23.4062 23.5515L23.3229 26.4659H2.25727L2.29042 23.4331C2.33928 18.9628 3.59737 14.9237 6.11228 11.4263C8.57637 7.9784 11.9019 5.3274 15.9912 3.44918L15.9972 3.44643C20.1329 1.5579 24.7661 0.650513 29.8357 0.650513C34.873 0.650513 39.4387 1.53274 43.4604 3.38709C47.4343 5.21934 50.6448 7.77673 52.9696 11.0997C55.3163 14.4325 56.4845 18.221 56.4863 22.3697C56.51 26.787 55.0351 30.6213 51.9817 33.6235C51.1709 34.4264 50.2991 35.1388 49.3697 35.7625C51.2087 36.6647 52.8321 37.8181 54.2071 39.2487C57.3929 42.541 58.9387 46.6684 58.9152 51.4079C58.9135 55.8345 57.5909 59.8401 54.9469 63.3151C52.3637 66.7169 48.8222 69.312 44.4637 71.1632L44.4565 71.1663C40.0812 73.011 35.1451 73.8948 29.7079 73.8948C24.3796 73.8948 19.5334 72.9833 15.2316 71.0819L15.2224 71.0779ZM52.5594 61.4985C54.7966 58.5582 55.9152 55.1917 55.9152 51.3991C55.9366 47.3721 54.6475 44.0163 52.0481 41.3316C50.4704 39.6888 48.4261 38.437 45.915 37.576C44.3431 37.0371 42.5882 36.6513 40.6503 36.4188C40.625 36.4157 40.5997 36.4127 40.5743 36.4097V35.8984C40.5948 35.8954 40.6152 35.8924 40.6356 35.8894C42.5089 35.6103 44.2126 35.1068 45.7466 34.379C47.2956 33.644 48.6716 32.6804 49.8748 31.4879C52.3037 29.1015 53.5076 26.0653 53.4863 22.3792C53.4863 18.821 52.4955 15.6356 50.514 12.8231C48.5324 9.98929 45.7625 7.75208 42.2043 6.11145C38.6461 4.47083 34.5232 3.65051 29.8357 3.65051C25.1269 3.65051 20.9294 4.49213 17.2434 6.17537C13.5786 7.85861 10.6809 10.1917 8.55019 13.1747C6.98392 15.3518 5.98183 17.7822 5.5439 20.4659C5.38608 21.433 5.30153 22.433 5.29024 23.4659H20.4074C20.45 21.9744 20.8868 20.664 21.7178 19.5347C22.5488 18.4055 23.6674 17.5319 25.0736 16.914C26.5012 16.2961 28.0885 15.9872 29.8357 15.9872C31.4976 15.9872 32.9571 16.2961 34.2143 16.914C35.4927 17.5319 36.4834 18.4055 37.1866 19.5347C37.911 20.6427 38.2625 21.9318 38.2412 23.4019C38.2625 24.9147 37.8577 26.257 37.0268 27.4289C36.1958 28.5795 35.0346 29.4744 33.5431 30.1136C32.0729 30.7528 30.3684 31.0724 28.4294 31.0724H22.0694V42.3224H28.4294C30.6454 42.3224 32.563 42.6526 34.1823 43.3132C35.8229 43.9737 37.0907 44.9005 37.9856 46.0937C38.8804 47.2869 39.3172 48.6505 39.2959 50.1846C39.3172 51.7187 38.9231 53.0823 38.1134 54.2755C37.3037 55.4474 36.1745 56.3742 34.7256 57.0561C33.2981 57.7166 31.6468 58.0468 29.7718 58.0468C27.8968 58.0468 26.2242 57.7379 24.754 57.12C23.2838 56.5021 22.1226 55.6498 21.2704 54.5632C20.4181 53.4552 19.96 52.1874 19.8961 50.7599H3.97987C3.99102 51.7913 4.07656 52.7913 4.2365 53.7599C4.68782 56.4933 5.73154 58.977 7.36766 61.2109C9.58356 64.2365 12.6091 66.6122 16.4444 68.338C20.3009 70.0426 24.7221 70.8948 29.7079 70.8948C34.8215 70.8948 39.3492 70.0639 43.291 68.4019C47.254 66.7187 50.3435 64.4176 52.5594 61.4985Z" fill="white"/>
</svg>
